# xmcd
# 
# Track frame offsets:
#     150
#     18014
#     46873
#     64632
#     75009
#     85695
#     107242
#     121005
#     154940
#     161746
#     184711
#     186896
# 
# Disc length: 3019
# 
# Revision: 1
# Processed by: cddbd v1.5.2PL0 Copyright (c) Steve Scherf et al.
# Submitted via: fre:ac v1.0.31
# 
DISCID=800bc90c
DTITLE=Jay Johnson Band - RoyalBlueMoon
DYEAR=2004
DGENRE=Rock
TTITLE0=Lost in the City
TTITLE1=Blues #5
TTITLE2=Little Marvin
TTITLE3=Josephine
TTITLE4=Rain
TTITLE5=Love in the Wasteland
TTITLE6=Out of the Fire
TTITLE7=Inside Out
TTITLE8=Gitsumonya
TTITLE9=The 41 Thing
TTITLE10=Ether or
TTITLE11=Rushing to Divide
EXTD=
EXTT0=
EXTT1=
EXTT2=
EXTT3=
EXTT4=
EXTT5=
EXTT6=
EXTT7=
EXTT8=
EXTT9=
EXTT10=
EXTT11=
PLAYORDER=
